<svg id="Capa_1" enable-background="new 0 0 512 512" height="512" viewBox="0 0 512 512" width="512" xmlns="http://www.w3.org/2000/svg" xmlns:xlink="http://www.w3.org/1999/xlink"><linearGradient id="SVGID_1_" gradientUnits="userSpaceOnUse" x1="74.98" x2="437.019" y1="437.019" y2="74.98"><stop offset="0" stop-color="#ff4747"/><stop offset="1" stop-color="#fff200"/></linearGradient><radialGradient id="SVGID_2_" cx="257.013" cy="280.338" gradientUnits="userSpaceOnUse" r="256"><stop offset="0" stop-color="#ff4747"/><stop offset=".106" stop-color="#ff4f49" stop-opacity=".889"/><stop offset=".2641" stop-color="#ff634f" stop-opacity=".723"/><stop offset=".4545" stop-color="#ff8458" stop-opacity=".523"/><stop offset=".6704" stop-color="#ffb265" stop-opacity=".297"/><stop offset=".9046" stop-color="#ffed74" stop-opacity=".052"/><stop offset=".9537" stop-color="#fffa78" stop-opacity="0"/></radialGradient><linearGradient id="lg1"><stop offset="0" stop-color="#ffb11d"/><stop offset="1" stop-color="#feffd6"/></linearGradient><linearGradient id="SVGID_3_" gradientUnits="userSpaceOnUse" x1="61.619" x2="578.303" xlink:href="#lg1" y1="568.778" y2="52.094"/><linearGradient id="SVGID_4_" gradientUnits="userSpaceOnUse" x1="92.622" x2="580.313" xlink:href="#lg1" y1="485.059" y2="-2.631"/><linearGradient id="SVGID_5_" gradientUnits="userSpaceOnUse" x1="256" x2="256" y1="384.763" y2="321.687"><stop offset=".0463" stop-color="#fffa78" stop-opacity="0"/><stop offset=".1788" stop-color="#fff677" stop-opacity=".139"/><stop offset=".3221" stop-color="#ffe973" stop-opacity=".289"/><stop offset=".4704" stop-color="#ffd36d" stop-opacity=".445"/><stop offset=".6221" stop-color="#ffb565" stop-opacity=".604"/><stop offset=".7766" stop-color="#ff8e5b" stop-opacity=".766"/><stop offset=".9311" stop-color="#ff5f4e" stop-opacity=".928"/><stop offset="1" stop-color="#ff4747"/></linearGradient><linearGradient id="lg2"><stop offset="0" stop-color="#ff4747"/><stop offset=".1984" stop-color="#ff643b"/><stop offset=".6252" stop-color="#ffad1d"/><stop offset="1" stop-color="#fff200"/></linearGradient><linearGradient id="SVGID_6_" gradientUnits="userSpaceOnUse" x1="140.337" x2="652.227" xlink:href="#lg2" y1="474.926" y2="-36.964"/><linearGradient id="SVGID_7_" gradientUnits="userSpaceOnUse" x1="146.231" x2="650.158" xlink:href="#lg2" y1="393.119" y2="-110.808"/><radialGradient id="SVGID_8_" cx="261.52" cy="294.461" gradientUnits="userSpaceOnUse" r="213.201"><stop offset="0" stop-color="#ff2f2b"/><stop offset=".2533" stop-color="#ff3a39" stop-opacity=".743"/><stop offset=".6046" stop-color="#f44" stop-opacity=".386"/><stop offset=".984" stop-color="#ff4747" stop-opacity="0"/></radialGradient><linearGradient id="SVGID_9_" gradientUnits="userSpaceOnUse" x1="-58.15" x2="404.15" y1="582.896" y2="120.597"><stop offset="0" stop-color="#ffcb00"/><stop offset=".2136" stop-color="#ffda49"/><stop offset=".4253" stop-color="#ffe78a"/><stop offset=".6156" stop-color="#fff1bc"/><stop offset=".7808" stop-color="#fff9e1"/><stop offset=".9145" stop-color="#fffdf7"/><stop offset="1" stop-color="#fff"/></linearGradient><linearGradient id="lg3"><stop offset="0" stop-color="#ffb11d"/><stop offset=".46" stop-color="#ffd449"/><stop offset=".9953" stop-color="#fffa78"/></linearGradient><linearGradient id="SVGID_10_" gradientUnits="userSpaceOnUse" x1="-28.145" x2="574.47" xlink:href="#lg3" y1="357.134" y2="-245.481"/><linearGradient id="SVGID_11_" gradientUnits="userSpaceOnUse" x1="-27.719" x2="539.519" xlink:href="#lg3" y1="511.976" y2="-55.262"/><linearGradient id="lg4"><stop offset="0" stop-color="#ffb11d"/><stop offset=".4622" stop-color="#ffd449"/><stop offset="1" stop-color="#fffa78"/></linearGradient><linearGradient id="SVGID_12_" gradientUnits="userSpaceOnUse" x1="-41.11" x2="360.8" xlink:href="#lg4" y1="311.244" y2="-90.666"/><linearGradient id="SVGID_13_" gradientUnits="userSpaceOnUse" x1="-23.807" x2="373.821" xlink:href="#lg4" y1="430.812" y2="33.184"/><linearGradient id="SVGID_14_" gradientUnits="userSpaceOnUse" x1="14.265" x2="415.998" xlink:href="#lg4" y1="751.495" y2="349.762"/><linearGradient id="SVGID_15_" gradientUnits="userSpaceOnUse" x1="-42.042" x2="415.615" xlink:href="#lg4" y1="647.073" y2="189.416"/><g><circle cx="256" cy="256" fill="url(#SVGID_1_)" r="256"/><circle cx="256" cy="256" fill="url(#SVGID_2_)" r="256"/><path d="m147.857 322.486c.295 20.328.687 40.656 1.178 60.985 86.424 2.088 172.848 1.646 259.273-1.327.698-20.152 1.257-40.304 1.677-60.456-87.376 1.787-174.752 2.053-262.128.798z" fill="url(#SVGID_3_)"/><path d="m102.015 321.687c.42 20.152.979 40.304 1.677 60.456 81.386 2.799 162.772 3.355 244.158 1.667.421-20.373.758-40.747 1.011-61.12-82.281 1.015-164.564.681-246.846-1.003z" fill="url(#SVGID_4_)"/><path d="m102.015 321.687c.42 20.152.979 40.304 1.677 60.456 101.539 3.493 203.077 3.493 304.616 0 .698-20.152 1.257-40.304 1.677-60.456-102.657 2.101-205.313 2.101-307.97 0z" fill="url(#SVGID_5_)"/><path d="m410.695 276.345c-51.354-19.623-103.058-40.208-154.695-60.708 36.264 41 72.623 82.042 107.903 122.094 15.247-.256 30.494-.566 45.741-.93 16.824-.425 30.889-14.26 31.249-30.801.358-16.542-13.238-29.803-30.198-29.655z" fill="url(#SVGID_6_)"/><path d="m394.964 306.821c.271-16.73-13.362-30.178-30.323-30.075-36.066-20.068-72.377-40.609-108.641-61.109-51.637 20.5-103.341 41.084-154.695 60.708-16.96-.148-30.556 13.111-30.198 29.655.359 16.541 14.425 30.375 31.249 30.801 87.182 2.084 174.365 2.394 261.547.93 16.824-.298 30.788-14.182 31.061-30.91z" fill="url(#SVGID_7_)"/><path d="m410.695 276.345c-51.354-19.623-103.058-40.208-154.695-60.708-51.637 20.5-103.341 41.084-154.695 60.708-16.96-.148-30.556 13.111-30.198 29.655.359 16.541 14.425 30.375 31.249 30.801 102.429 2.448 204.859 2.448 307.288 0 16.824-.425 30.889-14.26 31.249-30.801.358-16.542-13.238-29.803-30.198-29.655z" fill="url(#SVGID_8_)"/><path d="m410.505 261.234c-103.003.705-206.007.705-309.01 0-4.206-.028-7.852 3.129-7.94 7.255-.091 4.269 3.433 7.811 7.75 7.856 15.298.157 30.596.29 45.894.4 9.196.065 17.474 4.133 23.144 10.551 21.032 23.8 42.046 47.727 62.816 71.585 5.602 6.432 13.76 10.506 22.842 10.506 9.081.001 17.24-4.073 22.842-10.506 20.769-23.857 41.784-47.785 62.816-71.585 5.67-6.418 13.948-10.487 23.144-10.551 15.298-.11 30.596-.244 45.894-.4 4.317-.046 7.841-3.587 7.75-7.856-.09-4.125-3.736-7.283-7.942-7.255z" fill="url(#SVGID_9_)"/><path d="m163.389 131.177c-20.683.275-41.366.642-62.049 1.1-19.325 28.939-30.885 62.702-30.865 98.723.003 16.543 13.893 30.092 30.858 30.233 20.486.14 40.971.253 61.457.337-.182-43.464.018-86.928.599-130.393z" fill="url(#SVGID_10_)"/><path d="m410.66 132.278c-86.068-1.909-172.136-2.225-258.204-.947-12.835 28.924-20.494 63.07-20.481 99.676.003 16.779 13.85 30.478 30.815 30.563 82.626.341 165.251.229 247.877-.337 16.964-.14 30.855-13.69 30.858-30.233.02-36.022-11.54-69.783-30.865-98.722z" fill="url(#SVGID_11_)"/><path d="m256 45.488c-63.275-.032-120.409 35.901-154.66 86.79 9.974 15.537 22.538 29.504 37.082 41.393 39.602-42.498 79.251-85.644 117.578-128.183z" fill="url(#SVGID_12_)"/><path d="m256 45.488c-53.277.032-100.359 54.793-117.579 128.183 31.791 25.969 72.948 41.98 117.579 41.967 65.014-.007 122.847-33.954 154.66-83.36-34.251-50.89-91.385-86.823-154.66-86.79z" fill="url(#SVGID_13_)"/><path d="m415.46 366.819c-20.218.651-40.436 1.179-60.655 1.582-12.684 15.513-25.305 31.062-37.805 46.6 20-.336 40-.836 60-1.502 21.677-.745 40.635-17.274 45.604-38.022 1.107-4.648-2.402-8.807-7.144-8.658z" fill="url(#SVGID_14_)"/><path d="m362.064 377.26c1.045-4.693-2.516-8.953-7.258-8.859-86.089 1.718-172.177 1.191-258.266-1.582-4.742-.15-8.25 4.01-7.144 8.658 4.969 20.749 23.927 37.279 45.604 38.022 60.667 2.019 121.333 2.519 182 1.502 21.679-.375 40.368-16.783 45.064-37.741z" fill="url(#SVGID_15_)"/></g></svg>