<svg id="Capa_1" enable-background="new 0 0 512 512" height="512" viewBox="0 0 512 512" width="512" xmlns="http://www.w3.org/2000/svg" xmlns:xlink="http://www.w3.org/1999/xlink"><linearGradient id="SVGID_1_" gradientUnits="userSpaceOnUse" x1="74.981" x2="437.019" y1="437.019" y2="74.981"><stop offset="0" stop-color="#ff726d"/><stop offset="1" stop-color="#ffde00"/></linearGradient><radialGradient id="SVGID_2_" cx="254.986" cy="258.028" gradientUnits="userSpaceOnUse" r="256"><stop offset="0" stop-color="#ff726d"/><stop offset=".2437" stop-color="#ff7669" stop-opacity=".745"/><stop offset=".4925" stop-color="#ff825d" stop-opacity=".484"/><stop offset=".7427" stop-color="#ff9748" stop-opacity=".221"/><stop offset=".9537" stop-color="#ffae31" stop-opacity="0"/></radialGradient><linearGradient id="lg1"><stop offset="0" stop-color="#fca200"/><stop offset=".2032" stop-color="#fdb739"/><stop offset=".5981" stop-color="#fedda2"/><stop offset=".8721" stop-color="#fff6e5"/><stop offset="1" stop-color="#fff"/></linearGradient><linearGradient id="SVGID_3_" gradientUnits="userSpaceOnUse" x1="-33.387" x2="396.633" xlink:href="#lg1" y1="447.881" y2="17.861"/><linearGradient id="SVGID_4_" gradientUnits="userSpaceOnUse" x1="-8.894" x2="231.562" y1="249.884" y2="249.884"><stop offset="0" stop-color="#fcb000" stop-opacity="0"/><stop offset=".6382" stop-color="#fcae00" stop-opacity=".325"/><stop offset=".89" stop-color="#fca700" stop-opacity=".453"/><stop offset=".9817" stop-color="#fca200" stop-opacity=".5"/></linearGradient><linearGradient id="SVGID_5_" gradientUnits="userSpaceOnUse" x1="57.875" x2="167.737" y1="397.968" y2="288.107"><stop offset="0" stop-color="#fca200"/><stop offset="1" stop-color="#fcb000" stop-opacity="0"/></linearGradient><linearGradient id="SVGID_6_" gradientUnits="userSpaceOnUse" x1="-9.308" x2="342.78" xlink:href="#lg1" y1="521.308" y2="169.22"/><linearGradient id="SVGID_7_" gradientUnits="userSpaceOnUse" x1="273.453" x2="352.482" y1="256" y2="256"><stop offset="0" stop-color="#fcb000" stop-opacity="0"/><stop offset="1" stop-color="#fca200" stop-opacity=".5"/></linearGradient><linearGradient id="SVGID_8_" gradientUnits="userSpaceOnUse" x1="84.805" x2="519.763" xlink:href="#lg1" y1="524.701" y2="89.743"/><linearGradient id="SVGID_9_" gradientTransform="matrix(-1 0 0 -1 289.283 659.023)" gradientUnits="userSpaceOnUse" x1="-155.518" x2="-45.656" y1="535.667" y2="425.805"><stop offset="0" stop-color="#fff"/><stop offset=".5011" stop-color="#fef1dc"/><stop offset="1" stop-color="#fee5be"/></linearGradient><g><circle cx="256" cy="256" fill="url(#SVGID_1_)" r="256"/><circle cx="256" cy="256" fill="url(#SVGID_2_)" r="256"/><path d="m198.249 69.236c-28.612 18.026-57.573 36.357-86.722 54.582-4.648 2.908-7.588 7.907-7.726 13.175-2.434 93.338-2.004 186.676 1.288 280.014.431 11.641 13.441 19.621 23.256 14.08 22.806-12.87 45.912-26.326 69.23-40.142 2.388-1.417 5.086-2.102 7.791-2.063 9.701-45.678 19.877-91.551 30.133-137.48-10.242-61.649-20.313-123.216-29.5-184.52-2.67.053-5.351.843-7.75 2.354z" fill="url(#SVGID_3_)"/><path d="m198.249 69.236c-28.612 18.026-57.573 36.357-86.722 54.582-4.648 2.908-7.588 7.907-7.726 13.175-2.434 93.338-2.004 186.676 1.288 280.014.431 11.641 13.441 19.621 23.256 14.08 22.806-12.87 45.912-26.326 69.23-40.142 2.388-1.417 5.086-2.102 7.791-2.063 9.701-45.678 19.877-91.551 30.133-137.48-10.242-61.649-20.313-123.216-29.5-184.52-2.67.053-5.351.843-7.75 2.354z" fill="url(#SVGID_4_)"/><path d="m102.342 226.993c-.403 63.338.513 126.676 2.748 190.014.431 11.641 13.441 19.621 23.256 14.08 17.889-10.095 35.962-20.551 54.177-31.257-38.819-26.202-65.672-67.483-72.041-112.566-2.839-20.142-5.559-40.233-8.14-60.271z" fill="url(#SVGID_5_)"/><path d="m298.8 120.829c-28.672-17.652-57.094-35.089-85.107-51.907-2.361-1.416-5.022-2.097-7.693-2.04-1.419 107.333-1.63 214.667-.633 322 2.705.039 5.416.802 7.832 2.289 28.672 17.652 57.094 35.089 85.107 51.907 2.361 1.416 5.022 2.097 7.693 2.04 10.813-61.716 21.717-123.292 31.999-184.55-10.226-45.621-20.814-91.483-31.366-137.45-2.704-.037-5.416-.803-7.832-2.289z" fill="url(#SVGID_6_)"/><path d="m298.8 120.829c-28.672-17.652-57.094-35.089-85.107-51.907-2.361-1.416-5.022-2.097-7.693-2.04-1.419 107.333-1.63 214.667-.633 322 2.705.039 5.416.802 7.832 2.289 28.672 17.652 57.094 35.089 85.107 51.907 2.361 1.416 5.022 2.097 7.693 2.04 10.813-61.716 21.717-123.292 31.999-184.55-10.226-45.621-20.814-91.483-31.366-137.45-2.704-.037-5.416-.803-7.832-2.289z" fill="url(#SVGID_7_)"/><path d="m383.654 80.913c-22.806 12.871-45.912 26.326-69.23 40.142-2.389 1.416-5.087 2.102-7.791 2.063.997 107.333.786 214.667-.633 322 2.671-.053 5.352-.844 7.751-2.354 28.612-18.026 57.573-36.357 86.722-54.582 4.648-2.91 7.588-7.908 7.726-13.175 2.434-93.338 2.004-186.676-1.288-280.014-.432-11.64-13.442-19.624-23.257-14.08z" fill="url(#SVGID_8_)"/><path d="m409.658 285.007c.403-63.338-.513-126.676-2.748-190.014-.431-11.64-13.441-19.624-23.256-14.08-17.889 10.095-35.962 20.551-54.177 31.257 38.819 26.201 65.672 67.486 72.041 112.566 2.839 20.142 5.559 40.233 8.14 60.271z" fill="url(#SVGID_9_)"/></g></svg>